<?xml version="1.0" standalone="no"?>
<!DOCTYPE svg PUBLIC "-//W3C//DTD SVG 20010904//EN"
 "http://www.w3.org/TR/2001/REC-SVG-20010904/DTD/svg10.dtd">
<svg version="1.0" xmlns="http://www.w3.org/2000/svg"
 width="223.000000pt" height="223.000000pt" viewBox="0 0 223.000000 223.000000"
 preserveAspectRatio="xMidYMid meet">
<metadata>
Created by potrace 1.11, written by Peter Selinger 2001-2013
</metadata>
<g transform="translate(0.000000,223.000000) scale(0.100000,-0.100000)"
fill="#000000" stroke="none">
<path d="M946 2143 c0 -49 -4 -96 -8 -106 -9 -17 -32 -45 -159 -187 -31 -36
-66 -76 -77 -90 l-20 -25 -313 1 c-173 0 -319 -1 -325 -3 -6 -2 -10 -16 -9
-31 2 -15 6 -58 9 -97 25 -273 174 -504 428 -662 38 -24 77 -43 87 -43 11 0
22 -4 26 -9 3 -5 19 -12 35 -16 34 -7 32 -2 35 -110 1 -44 3 -86 4 -92 1 -10
28 -13 101 -13 l100 0 0 -92 -1 -93 -222 -120 -222 -120 -3 -118 -3 -117 701
0 701 0 -3 117 -3 118 -227 124 -228 123 0 89 0 89 105 0 c77 0 105 3 106 13
1 6 2 48 4 92 1 44 3 85 4 91 1 11 22 19 71 29 36 7 197 114 261 173 157 145
259 348 275 547 3 39 7 80 9 93 3 17 -2 25 -18 31 -12 4 -158 7 -325 6 l-303
0 -35 42 c-19 23 -40 48 -47 55 -7 7 -43 49 -81 93 -39 44 -77 86 -85 93 -12
9 -15 35 -16 112 l0 100 -165 0 -165 0 1 -87z m246 -38 l-4 -42 -78 1 -78 1
-4 38 c-2 21 -3 39 -1 40 1 2 39 3 85 3 l83 1 -3 -42z m-124 -247 l-3 -123
-136 0 c-137 0 -137 0 -120 20 9 12 56 67 105 123 80 92 91 102 122 102 l35 0
-3 -122z m203 60 c30 -35 72 -83 94 -108 74 -82 80 -76 -68 -74 -73 1 -135 2
-139 3 -5 0 -8 55 -8 121 l0 120 33 0 c29 0 42 -9 88 -62z m-823 -268 c2 0
-16 -28 -40 -62 -25 -35 -77 -110 -118 -167 l-73 -104 -23 46 c-26 51 -60 168
-69 239 l-5 47 77 3 c60 2 229 1 251 -2z m1647 -44 c-13 -97 -39 -186 -74
-254 l-18 -35 -117 164 -116 164 133 5 c72 3 147 3 165 1 32 -3 33 -4 27 -45z
m-1087 12 c-13 -18 -60 -84 -103 -145 -43 -62 -81 -113 -84 -113 -7 0 -201
275 -201 284 0 3 93 6 206 6 l206 0 -24 -32z m592 25 c0 -5 -24 -41 -53 -80
-28 -40 -72 -102 -97 -138 -25 -35 -48 -65 -51 -65 -5 0 -12 9 -137 188 l-72
102 205 0 c113 0 205 -3 205 -7z m-937 -210 l78 -113 -206 0 c-113 0 -205 3
-205 6 0 4 45 71 101 150 l101 144 27 -37 c15 -21 62 -89 104 -150z m557 31
l98 -139 -104 -3 c-57 -1 -150 -1 -207 0 l-103 3 100 146 c56 81 105 143 109
139 5 -4 53 -70 107 -146z m507 103 c15 -23 59 -86 97 -140 37 -54 66 -100 64
-103 -3 -2 -96 -3 -206 -2 l-201 3 102 146 c56 81 105 145 109 143 3 -2 19
-23 35 -47z m-997 -334 c0 -7 -89 -129 -147 -200 l-34 -43 -42 28 c-74 48
-128 91 -173 140 -84 88 -96 82 166 82 126 0 230 -3 230 -7z m538 -68 c-29
-41 -76 -109 -105 -150 l-52 -75 -24 32 c-49 66 -169 242 -174 255 -4 10 34
13 201 13 l207 0 -53 -75z m673 56 c-25 -46 -150 -157 -230 -204 l-45 -26 -88
117 c-48 64 -88 120 -88 125 0 4 104 7 230 7 223 0 230 -1 221 -19z m-1053
-108 c33 -49 79 -114 103 -147 l42 -58 -129 4 c-126 5 -264 31 -264 49 0 13
171 239 180 239 4 0 35 -39 68 -87z m609 -32 l90 -119 -25 -11 c-49 -23 -153
-39 -263 -40 l-110 -2 51 73 c29 40 75 106 103 146 28 39 54 72 57 72 4 0 48
-54 97 -119z m-382 -255 c127 0 260 3 298 7 l67 8 0 -49 0 -49 -100 1 c-55 0
-101 -2 -101 -6 -1 -5 -2 -23 -3 -40 l-1 -33 -159 -3 c-172 -3 -177 -1 -171
50 4 32 11 30 -122 30 l-83 0 0 49 0 49 73 -7 c39 -4 176 -7 302 -7z m156
-253 c6 -57 6 -72 -4 -75 -10 -3 -281 -2 -313 1 -8 1 -11 40 -5 74 1 9 321 9
322 0z m-375 -261 l-76 -90 0 -71 0 -71 -165 0 -165 0 0 54 c0 42 4 55 18 59
9 3 49 23 87 45 94 52 173 95 243 134 62 34 112 49 126 37 5 -4 -26 -48 -68
-97z m333 -14 c87 -105 89 -109 86 -155 -1 -27 -3 -52 -4 -56 0 -4 -92 -7
-203 -5 l-203 3 -2 53 c-1 52 12 77 67 132 3 3 23 28 45 55 66 83 81 96 104
87 11 -4 61 -55 110 -114z m131 86 c46 -26 154 -86 290 -159 l75 -40 3 -52 3
-52 -166 0 -165 -1 0 71 0 71 -80 94 -81 94 38 0 c22 0 57 -11 83 -26z"/>
</g>
</svg>
