<?xml version="1.0" encoding="utf-8"?>
<svg version="1.1" xmlns="http://www.w3.org/2000/svg" xmlns:xlink="http://www.w3.org/1999/xlink" x="0px" y="0px"
	 viewBox="0 0 215.7 223" style="enable-background:new 0 0 215.7 223;" xml:space="preserve">
<path d="M153.4,157.1v-19.7c40.3-15.5,61.4-44,62.3-87.7h-64.1c-8.9-10.2-17.7-20.2-26.4-30.2V9.2c0-5.1-4.1-9.2-9.2-9.2h-15.9
	c-0.4,0-0.8,0-1.2,0.1c-4.7,0.4-8.4,4.3-8.4,9.1v10.4c-8.7,9.9-17.4,19.9-26.3,30.1H1.1c0,0,0,0,0,0.1H0c0.9,43.7,22,72.2,62.3,87.7
	v19.7H83v17.8c-15.1,8.3-30.3,16.6-45.5,24.9V223h140v0h0.7v-23.2c-15.2-8.3-30.4-16.6-45.5-24.9v-17.8H153.4z M24.3,99.5
	c15.4,0,30.2,0,45.7,0c-6.2,8.3-12,16-17.9,23.8C40.9,117.6,31.8,110,24.3,99.5z M163.6,123.4c-5.9-7.9-11.7-15.6-17.9-23.9
	c15.6,0,30.3,0,45.8,0C184,110,174.9,117.6,163.6,123.4z M174.3,58.3c11.2,0,21.5,0,32.1,0c-0.9,11.6-3.6,22.1-9.4,32.3
	C189.3,79.7,182,69.3,174.3,58.3z M186,90.6c-13.8,0-26.8,0-40.6,0c6.9-9.8,13.4-19.1,20.3-29.1C172.6,71.4,179.1,80.7,186,90.6z
	 M136.8,87.2c-6.8-9.7-13.3-19-20.2-28.8c13.6,0,26.5,0,40.4,0C150.1,68.2,143.6,77.5,136.8,87.2z M87.6,90.4
	c6.8-9.8,13.3-19,20.2-28.9c6.9,9.9,13.4,19.1,20.2,28.9C114.4,90.4,101.4,90.4,87.6,90.4z M87.7,99.6c13.8,0,26.8,0,40.5,0
	c-6.8,9.8-13.3,19-20.2,28.9C100.9,118.6,94.5,109.4,87.7,99.6z M112.6,49.2c0-8.4,0-16.1,0-24.1c1.8,0,3.5,0,5.6,0
	c6.8,7.8,13.6,15.6,20.9,24.1C129.8,49.2,121.3,49.2,112.6,49.2z M115.4,16.2c-5,0-9.9,0-15,0c0-2.9,0-5.1,0-7.6c5.1,0,9.9,0,15,0
	C115.4,11.1,115.4,13.4,115.4,16.2z M99.3,131.9c-0.8,0-1.6,0.1-2.4,0.1c-12.7,0.3-24.4-0.1-36.3-5c6.1-8.1,11.9-15.9,18.2-24.3
	C85.8,112.6,92.3,122,99.3,131.9z M116.5,131.8c6.9-9.9,13.4-19.2,20.4-29.2c6.3,8.5,12.2,16.2,18.2,24.4c-7.9,3.3-15.7,4.6-23.8,5
	C126.5,132.2,121.6,132,116.5,131.8z M103.1,25.2c0,7.9,0,15.7,0,24c-8.6,0-17.1,0-26.6,0c7.4-8.5,14.2-16.3,20.9-24
	C99.3,25.2,101.1,25.2,103.1,25.2z M99.1,58.4C92.2,68.3,85.8,77.5,79,87.2c-6.8-9.7-13.3-18.9-20.1-28.7
	C72.7,58.4,85.6,58.4,99.1,58.4z M70.3,90.6c-13.8,0-26.8,0-40.6,0c6.9-9.9,13.4-19.2,20.3-29.1C57,71.5,63.5,80.8,70.3,90.6z
	 M41.4,58.3c-7.7,11-15,21.5-22.6,32.3C13,80.4,10.3,69.9,9.4,58.3C19.9,58.3,30.3,58.3,41.4,58.3z M123.7,173
	c-10.6,0-20.9,0-31.6,0c0-2.5,0-4.8,0-7.4c10.7,0,21.1,0,31.6,0C123.7,168.2,123.7,170.5,123.7,173z M46.5,214.6c0-3.1,0-6.2,0-9.8
	c11.5-6.3,23.3-12.7,35.1-19.1c3.5-1.9,6.7-4.5,11.6-3.5c0.1,0.2,0.2,0.4,0.4,0.7c-5,6.1-10.1,12.1-15.4,18.6c0,4.3,0,8.8,0,13.2
	C67.6,214.6,57.2,214.6,46.5,214.6z M87.7,214.6c0-3.4,0-7,0-10.9c5.8-6.9,12-14.3,18.2-21.6c1.3,0,2.6,0,4,0
	c6.2,7.3,12.4,14.7,18.2,21.6c0,4,0,7.5,0,10.9C114.6,214.6,101.4,214.6,87.7,214.6z M122.1,182.7c0.1-0.2,0.2-0.4,0.3-0.5
	c4.9-1.1,8.2,1.6,11.7,3.5c11.8,6.4,23.6,12.9,35.1,19.1c0,3.6,0,6.7,0,9.8c-10.7,0-21.1,0-31.7,0c0-4.4,0-9,0-13.3
	C132.2,194.9,127.2,188.8,122.1,182.7z M124.3,148.9c-0.2,2.9-0.4,5.2-0.6,7.7c-10.5,0-21,0-31.7,0c-0.2-2.5-0.3-4.8-0.6-7.7
	c-0.3,0-0.6-0.2-0.8-0.2c0.5,0,0,0.1,0,0c-6.7,0-12.9,0-19.2,0c0-3.4,0-6.3,0-8.8c24.4,0,48.5,0,72.8,0c0,2.5,0,5.3,0,8.7
	c-6.3,0-12.5,0-19.2,0"/>
</svg>
