<?xml version="1.0" encoding="utf-8"?>
<svg version="1.1" baseProfile="tiny" xmlns="http://www.w3.org/2000/svg" xmlns:xlink="http://www.w3.org/1999/xlink" x="0px" y="0px" viewBox="0 0 215.7 223" xml:space="preserve">
<path fill="#08B5E5" d="M153.39999,157.09998v-19.7c40.3-15.5,61.39999-44,62.3-87.7h-64.09999c-8.89999-10.2-17.7-20.2-26.4-30.2
	V9.19997c0-5.1-4.1-9.2-9.2-9.2h-15.9c-0.4,0-0.8,0-1.2,0.1c-4.7,0.4-8.4,4.3-8.4,9.1v10.4c-8.7,9.9-17.4,19.9-26.3,30.1H1.1
	c0,0,0,0,0,0.1H0c0.9,43.7,22,72.2,62.3,87.7v19.7H83v17.8c-15.1,8.3-30.3,16.60001-45.5,24.89999v23.10001h140l0,0h0.7v-23.2
	c-15.2-8.3-30.39999-16.60001-45.5-24.89999v-17.8H153.39999z M24.3,99.49997c15.4,0,30.2,0,45.7,0c-6.2,8.3-12,16-17.9,23.8
	C40.9,117.59997,31.8,109.99997,24.3,99.49997z M163.60001,123.39997c-5.89999-7.9-11.7-15.6-17.89999-23.9
	c15.60001,0,30.3,0,45.8,0C184,109.99997,174.89999,117.59997,163.60001,123.39997z M174.3,58.29997c11.2,0,21.5,0,32.09999,0
	c-0.89999,11.6-3.60001,22.1-9.39999,32.3C189.3,79.69997,182,69.29997,174.3,58.29997z M186,90.59997c-13.8,0-26.8,0-40.60001,0
	c6.89999-9.8,13.39999-19.1,20.3-29.1C172.60001,71.39997,179.10001,80.69997,186,90.59997z M136.8,87.19997
	c-6.8-9.7-13.3-19-20.2-28.8c13.60001,0,26.5,0,40.39999,0C150.10001,68.19997,143.60001,77.49997,136.8,87.19997z M87.6,90.39997
	c6.8-9.8,13.3-19,20.2-28.9c6.9,9.9,13.4,19.1,20.2,28.9C114.4,90.39997,101.4,90.39997,87.6,90.39997z M87.7,99.59997
	c13.8,0,26.8,0,40.5,0c-6.8,9.8-13.3,19-20.2,28.9C100.9,118.59997,94.5,109.39997,87.7,99.59997z M112.6,49.19997
	c0-8.4,0-16.1,0-24.1c1.8,0,3.5,0,5.6,0c6.8,7.8,13.60001,15.6,20.89999,24.1C129.8,49.19997,121.3,49.19997,112.6,49.19997z
	 M115.4,16.19997c-5,0-9.9,0-15,0c0-2.9,0-5.1,0-7.6c5.1,0,9.9,0,15,0C115.4,11.09997,115.4,13.39997,115.4,16.19997z
	 M99.3,131.89996c-0.8,0-1.6,0.10001-2.4,0.10001c-12.7,0.3-24.4-0.10001-36.3-5c6.1-8.1,11.9-15.9,18.2-24.3
	C85.8,112.59997,92.3,121.99997,99.3,131.89996z M116.5,131.79997c6.9-9.9,13.39999-19.2,20.39999-29.2c6.3,8.5,12.2,16.2,18.2,24.4
	c-7.89999,3.3-15.7,4.6-23.8,4.99999C126.5,132.19997,121.6,131.99997,116.5,131.79997z M103.1,25.19997c0,7.9,0,15.7,0,24
	c-8.6,0-17.1,0-26.6,0c7.4-8.5,14.2-16.3,20.9-24C99.3,25.19997,101.1,25.19997,103.1,25.19997z M99.1,58.39997
	c-6.9,9.9-13.3,19.1-20.1,28.8c-6.8-9.7-13.3-18.9-20.1-28.7C72.7,58.39997,85.6,58.39997,99.1,58.39997z M70.3,90.59997
	c-13.8,0-26.8,0-40.6,0c6.9-9.9,13.4-19.2,20.3-29.1C57,71.49997,63.5,80.79997,70.3,90.59997z M41.4,58.29997
	c-7.7,11-15,21.5-22.6,32.3c-5.8-10.2-8.5-20.7-9.4-32.3C19.9,58.29997,30.3,58.29997,41.4,58.29997z M123.7,172.99997
	c-10.6,0-20.9,0-31.6,0c0-2.5,0-4.8,0-7.39999c10.7,0,21.1,0,31.6,0C123.7,168.19997,123.7,170.49997,123.7,172.99997z
	 M46.5,214.59998c0-3.10001,0-6.2,0-9.8c11.5-6.3,23.3-12.7,35.1-19.10001c3.5-1.89999,6.7-4.5,11.6-3.5
	c0.1,0.2,0.2,0.39999,0.4,0.7c-5,6.10001-10.1,12.10001-15.4,18.60001c0,4.3,0,8.8,0,13.2
	C67.6,214.59998,57.2,214.59998,46.5,214.59998z M87.7,214.59998c0-3.39999,0-7,0-10.89999c5.8-6.89999,12-14.3,18.2-21.60001
	c1.3,0,2.6,0,4,0c6.2,7.3,12.4,14.7,18.2,21.60001c0,4,0,7.5,0,10.89999C114.6,214.59998,101.4,214.59998,87.7,214.59998z
	 M122.1,182.69997c0.1-0.2,0.2-0.39999,0.3-0.5c4.9-1.10001,8.2,1.60001,11.7,3.5c11.8,6.39999,23.60001,12.89999,35.10001,19.10001
	c0,3.60001,0,6.7,0,9.8c-10.7,0-21.10001,0-31.7,0c0-4.39999,0-9,0-13.3C132.2,194.89996,127.2,188.79997,122.1,182.69997z
	 M124.3,148.89996c-0.2,2.89999-0.4,5.2-0.6,7.7c-10.5,0-21,0-31.7,0c-0.2-2.5-0.3-4.8-0.6-7.7c-0.3,0-0.6-0.2-0.8-0.2
	c0.5,0,0,0.10001,0,0c-6.7,0-12.9,0-19.2,0c0-3.39999,0-6.3,0-8.8c24.4,0,48.5,0,72.8,0c0,2.5,0,5.3,0,8.7c-6.3,0-12.5,0-19.2,0"/>
</svg>