<?xml version="1.0" encoding="UTF-8"?><svg xmlns="http://www.w3.org/2000/svg" viewBox="0 0 765 223"><path d="m432.541,157.1v-19.7c40.3-15.5,61.4-44,62.3-87.7h-64.1c-8.9-10.2-17.7-20.2-26.4-30.2v-10.3c0-5.1-4.1-9.2-9.2-9.2h-15.9c-.4,0-.8,0-1.2.1-4.7.4-8.4,4.3-8.4,9.1v10.4c-8.7,9.9-17.4,19.9-26.3,30.1h-63.1v.1h-1.1c.9,43.7,22,72.2,62.3,87.7v19.7h20.7v17.8c-15.1,8.3-30.3,16.6-45.5,24.9v23.1h140.7v-23.2c-15.2-8.3-30.4-16.6-45.5-24.9v-17.8h20.7Zm-129.1-57.6h45.7c-6.2,8.3-12,16-17.9,23.8-11.2-5.7-20.3-13.3-27.8-23.8Zm139.3,23.9c-5.9-7.9-11.7-15.6-17.9-23.9h45.8c-7.5,10.5-16.6,18.1-27.9,23.9Zm10.7-65.1h32.1c-.9,11.6-3.6,22.1-9.4,32.3-7.7-10.9-15-21.3-22.7-32.3Zm11.7,32.3h-40.6c6.9-9.8,13.4-19.1,20.3-29.1,6.9,9.9,13.4,19.2,20.3,29.1Zm-49.2-3.4c-6.8-9.7-13.3-19-20.2-28.8h40.4c-6.9,9.8-13.4,19.1-20.2,28.8Zm-49.2,3.2c6.8-9.8,13.3-19,20.2-28.9,6.9,9.9,13.4,19.1,20.2,28.9h-40.4Zm.1,9.2h40.5c-6.8,9.8-13.3,19-20.2,28.9-7.1-9.9-13.5-19.1-20.3-28.9Zm24.9-50.4v-24.1h5.6c6.8,7.8,13.6,15.6,20.9,24.1h-26.5Zm2.8-33h-15v-7.6h15v7.6Zm-16.1,115.7c-.8,0-1.6.1-2.4.1-12.7.3-24.4-.1-36.3-5,6.1-8.1,11.9-15.9,18.2-24.3,7,9.9,13.5,19.3,20.5,29.2Zm17.2-.1c6.9-9.9,13.4-19.2,20.4-29.2,6.3,8.5,12.2,16.2,18.2,24.4-7.9,3.3-15.7,4.6-23.8,5-4.8.2-9.7,0-14.8-.2Zm-13.4-106.6v24h-26.6c7.4-8.5,14.2-16.3,20.9-24h5.7Zm-4,33.2c-6.9,9.9-13.3,19.1-20.1,28.8-6.8-9.7-13.3-18.9-20.1-28.7,13.8-.1,26.7-.1,40.2-.1Zm-28.8,32.2h-40.6c6.9-9.9,13.4-19.2,20.3-29.1,7,10,13.5,19.3,20.3,29.1Zm-28.9-32.3c-7.7,11-15,21.5-22.6,32.3-5.8-10.2-8.5-20.7-9.4-32.3h32Zm82.3,114.7h-31.6v-7.4h31.6v7.4Zm-77.2,41.6v-9.8c11.5-6.3,23.3-12.7,35.1-19.1,3.5-1.9,6.7-4.5,11.6-3.5.1.2.2.4.4.7-5,6.1-10.1,12.1-15.4,18.6v13.2c-10.6-.1-21-.1-31.7-.1Zm41.2,0v-10.9c5.8-6.9,12-14.3,18.2-21.6h4c6.2,7.3,12.4,14.7,18.2,21.6v10.9h-40.4Zm34.4-31.9c.1-.2.2-.4.3-.5,4.9-1.1,8.2,1.6,11.7,3.5,11.8,6.4,23.6,12.9,35.1,19.1v9.8h-31.7v-13.3c-5.3-6.4-10.3-12.5-15.4-18.6Zm2.2-33.8c-.2,2.9-.4,5.2-.6,7.7h-31.7c-.2-2.5-.3-4.8-.6-7.7-.3,0-.6-.2-.8-.2.5,0,0,.1,0,0h-19.2v-8.8h72.8v8.7h-19.2"/><path d="m38.555,140.37c0-1.602-.391-3.008-1.172-4.219-.782-1.211-2.061-2.383-3.838-3.516-1.778-1.133-4.17-2.344-7.178-3.633-2.93-1.211-5.557-2.412-7.881-3.604-2.325-1.191-4.288-2.49-5.889-3.896-1.602-1.406-2.823-3.037-3.662-4.893-.84-1.855-1.26-4.053-1.26-6.592s.478-4.893,1.436-7.061c.957-2.168,2.314-4.072,4.072-5.713s3.867-2.919,6.328-3.838c2.461-.917,5.215-1.377,8.262-1.377,4.336,0,8.027.84,11.074,2.52,3.047,1.68,5.38,3.975,7.002,6.885,1.621,2.911,2.432,6.182,2.432,9.814h-10.312c0-1.758-.391-3.417-1.172-4.98-.782-1.562-1.934-2.842-3.457-3.838s-3.379-1.494-5.566-1.494c-2.305,0-4.18.41-5.625,1.23-1.446.82-2.49,1.885-3.135,3.193-.645,1.309-.967,2.745-.967,4.307,0,1.172.166,2.178.498,3.018.332.84.908,1.621,1.729,2.344s1.943,1.465,3.369,2.227c1.425.762,3.252,1.631,5.479,2.607,4.296,1.68,7.91,3.379,10.84,5.098s5.156,3.73,6.68,6.035,2.285,5.156,2.285,8.555c0,2.773-.498,5.283-1.494,7.529s-2.413,4.17-4.248,5.771c-1.836,1.602-4.034,2.822-6.592,3.662-2.559.839-5.42,1.26-8.584,1.26-4.766,0-8.799-.948-12.1-2.842-3.301-1.895-5.801-4.375-7.5-7.441s-2.549-6.357-2.549-9.873h10.371c.117,2.969.791,5.273,2.021,6.914s2.725,2.773,4.482,3.398,3.516.938,5.273.938c2.304,0,4.238-.342,5.801-1.025,1.562-.684,2.744-1.67,3.545-2.959.8-1.289,1.201-2.793,1.201-4.512Z"/><path d="m82.664,93.202v8.32h-29.59v-8.32h29.59Zm-19.922-15.41h10.371v63.105c0,2.148.264,3.77.791,4.863s1.201,1.816,2.021,2.168,1.699.527,2.637.527c.703,0,1.484-.088,2.344-.264.859-.176,1.445-.322,1.758-.439l-.059,8.848c-.703.272-1.641.536-2.812.791-1.172.253-2.657.381-4.453.381-2.227,0-4.297-.527-6.211-1.582-1.915-1.055-3.457-2.822-4.629-5.303s-1.758-5.83-1.758-10.049v-63.047Z"/><path d="m114.703,157.772c-3.79,0-7.207-.567-10.254-1.699-3.047-1.133-5.645-2.861-7.793-5.186-2.149-2.324-3.79-5.264-4.922-8.818-1.133-3.555-1.699-7.754-1.699-12.598v-7.148c0-5.586.654-10.312,1.963-14.18,1.308-3.867,3.076-6.982,5.303-9.346,2.227-2.363,4.746-4.082,7.559-5.156,2.812-1.074,5.703-1.611,8.672-1.611,3.984,0,7.383.645,10.195,1.934s5.098,3.204,6.855,5.742c1.758,2.54,3.056,5.665,3.896,9.375.839,3.711,1.26,7.988,1.26,12.832v6.035h-39.609v-8.848h29.238v-1.465c-.157-3.281-.596-6.171-1.318-8.672-.723-2.5-1.904-4.462-3.545-5.889-1.641-1.425-3.965-2.139-6.973-2.139-1.915,0-3.682.322-5.303.967-1.622.645-3.008,1.758-4.16,3.34-1.153,1.582-2.051,3.76-2.695,6.533-.645,2.773-.967,6.289-.967,10.547v7.148c0,3.398.322,6.318.967,8.76s1.601,4.453,2.871,6.035c1.269,1.582,2.832,2.754,4.688,3.516,1.855.762,3.974,1.143,6.357,1.143,3.476,0,6.347-.674,8.613-2.021,2.265-1.348,4.238-3.076,5.918-5.186l5.449,6.504c-1.133,1.602-2.607,3.135-4.424,4.6s-4.043,2.656-6.68,3.574c-2.637.917-5.792,1.377-9.463,1.377Z"/><path d="m156.41,66.601v90h-10.312v-90h10.312Z"/><path d="m180.949,66.601v90h-10.312v-90h10.312Z"/><path d="m227.051,118.163l.117,7.617h-7.207c-2.461,0-4.698.273-6.709.82-2.012.547-3.741,1.338-5.186,2.373-1.446,1.035-2.549,2.314-3.311,3.838s-1.143,3.262-1.143,5.215c0,2.539.352,4.561,1.055,6.064s1.758,2.588,3.164,3.252,3.183.996,5.332.996c2.617,0,4.922-.605,6.914-1.816s3.545-2.676,4.658-4.395,1.63-3.32,1.553-4.805l2.285,4.863c-.157,1.523-.655,3.174-1.494,4.951-.84,1.777-2.002,3.477-3.486,5.098-1.485,1.621-3.233,2.949-5.244,3.984-2.012,1.034-4.268,1.553-6.768,1.553-3.672,0-6.885-.703-9.639-2.109s-4.893-3.477-6.416-6.211-2.285-6.113-2.285-10.137c0-3.047.527-5.859,1.582-8.438s2.617-4.814,4.688-6.709c2.07-1.895,4.677-3.369,7.822-4.424,3.144-1.055,6.787-1.582,10.928-1.582h8.789Zm-1.641,27.598v-34.395c0-2.5-.381-4.512-1.143-6.035s-1.895-2.637-3.398-3.34c-1.504-.703-3.389-1.055-5.654-1.055-2.188,0-4.072.45-5.654,1.348-1.582.899-2.793,2.09-3.633,3.574-.84,1.485-1.26,3.125-1.26,4.922h-10.371c0-2.265.498-4.512,1.494-6.738s2.432-4.248,4.307-6.064,4.131-3.261,6.768-4.336c2.637-1.074,5.596-1.611,8.877-1.611,3.906,0,7.363.635,10.371,1.904,3.007,1.27,5.371,3.331,7.09,6.182,1.718,2.852,2.578,6.641,2.578,11.367v31.289c0,2.109.166,4.355.498,6.738.332,2.383.81,4.434,1.436,6.152v.938h-10.723c-.508-1.25-.899-2.92-1.172-5.01-.274-2.09-.41-4.033-.41-5.83Z"/><path d="m259.207,103.163v53.438h-10.371v-63.398h10.02l.352,9.961Zm15.762-10.312l.059,10.078c-.86-.195-1.631-.322-2.314-.381-.684-.059-1.475-.088-2.373-.088-1.954,0-3.662.391-5.127,1.172-1.465.782-2.725,1.875-3.779,3.281s-1.895,3.076-2.52,5.01c-.625,1.934-1.055,4.053-1.289,6.357l-2.695,1.758c0-3.828.302-7.422.908-10.781.605-3.359,1.553-6.337,2.842-8.936,1.289-2.597,2.939-4.629,4.951-6.094,2.011-1.465,4.424-2.197,7.236-2.197.625,0,1.396.088,2.314.264.917.176,1.513.362,1.787.557Z"/><path d="m516.01,158.972c-3.789,0-7.207-.567-10.254-1.699-3.047-1.133-5.645-2.861-7.793-5.186s-3.789-5.264-4.922-8.818-1.699-7.754-1.699-12.598v-7.148c0-5.586.654-10.312,1.963-14.18s3.076-6.982,5.303-9.346c2.227-2.363,4.746-4.082,7.559-5.156,2.812-1.074,5.703-1.611,8.672-1.611,3.984,0,7.383.645,10.195,1.934s5.098,3.204,6.855,5.742c1.758,2.54,3.057,5.665,3.896,9.375.84,3.711,1.26,7.988,1.26,12.832v6.035h-39.609v-8.848h29.238v-1.465c-.156-3.281-.596-6.172-1.318-8.672-.723-2.5-1.904-4.462-3.545-5.889-1.641-1.425-3.965-2.139-6.973-2.139-1.914,0-3.682.322-5.303.967s-3.008,1.758-4.16,3.34-2.051,3.76-2.695,6.533c-.645,2.773-.967,6.289-.967,10.547v7.148c0,3.398.322,6.318.967,8.76s1.602,4.453,2.871,6.035,2.832,2.754,4.688,3.516,3.975,1.143,6.357,1.143c3.477,0,6.348-.674,8.613-2.021s4.238-3.076,5.918-5.186l5.449,6.504c-1.133,1.602-2.607,3.135-4.424,4.6s-4.043,2.656-6.68,3.574c-2.637.917-5.791,1.377-9.463,1.377Z"/><path d="m554.201,94.401l10.664,23.086,10.84-23.086h12.012l-17.168,31.289,17.637,32.109h-11.895l-11.191-23.789-11.25,23.789h-11.953l17.637-32.109-17.168-31.289h11.836Z"/><path d="m606.631,106.589v75.586h-10.371v-87.773h9.434l.938,12.188Zm35.449,16.641v5.918c0,5-.459,9.365-1.377,13.096s-2.266,6.836-4.043,9.316-3.955,4.336-6.533,5.566-5.527,1.846-8.848,1.846-6.201-.636-8.643-1.904c-2.441-1.27-4.492-3.115-6.152-5.537s-2.969-5.342-3.926-8.76-1.611-7.256-1.963-11.514v-9.023c.352-4.492.996-8.525,1.934-12.1s2.236-6.621,3.896-9.141,3.711-4.443,6.152-5.771c2.441-1.328,5.303-1.992,8.584-1.992,3.398,0,6.396.586,8.994,1.758s4.785,2.979,6.562,5.42c1.777,2.442,3.115,5.547,4.014,9.316.898,3.77,1.348,8.271,1.348,13.506Zm-10.371,5.918v-5.918c0-3.516-.264-6.582-.791-9.199-.527-2.617-1.357-4.785-2.49-6.504-1.133-1.718-2.559-3.007-4.277-3.867-1.719-.859-3.789-1.289-6.211-1.289-2.07,0-3.896.43-5.479,1.289-1.582.86-2.939,2.021-4.072,3.486s-2.07,3.125-2.812,4.98c-.742,1.855-1.289,3.779-1.641,5.771v17.754c.664,2.5,1.543,4.854,2.637,7.061s2.568,3.994,4.424,5.361,4.209,2.051,7.061,2.051c2.383,0,4.434-.43,6.152-1.289s3.135-2.158,4.248-3.896,1.934-3.926,2.461-6.562.791-5.713.791-9.229Z"/><path d="m675.115,158.972c-3.789,0-7.207-.567-10.254-1.699-3.047-1.133-5.645-2.861-7.793-5.186s-3.789-5.264-4.922-8.818-1.699-7.754-1.699-12.598v-7.148c0-5.586.654-10.312,1.963-14.18s3.076-6.982,5.303-9.346c2.227-2.363,4.746-4.082,7.559-5.156,2.812-1.074,5.703-1.611,8.672-1.611,3.984,0,7.383.645,10.195,1.934s5.098,3.204,6.855,5.742c1.758,2.54,3.057,5.665,3.896,9.375.84,3.711,1.26,7.988,1.26,12.832v6.035h-39.609v-8.848h29.238v-1.465c-.156-3.281-.596-6.172-1.318-8.672-.723-2.5-1.904-4.462-3.545-5.889-1.641-1.425-3.965-2.139-6.973-2.139-1.914,0-3.682.322-5.303.967s-3.008,1.758-4.16,3.34-2.051,3.76-2.695,6.533c-.645,2.773-.967,6.289-.967,10.547v7.148c0,3.398.322,6.318.967,8.76s1.602,4.453,2.871,6.035,2.832,2.754,4.688,3.516,3.975,1.143,6.357,1.143c3.477,0,6.348-.674,8.613-2.021s4.238-3.076,5.918-5.186l5.449,6.504c-1.133,1.602-2.607,3.135-4.424,4.6s-4.043,2.656-6.68,3.574c-2.637.917-5.791,1.377-9.463,1.377Z"/><path d="m716.061,104.362v53.438h-10.371v-63.398h10.02l.352,9.961Zm15.762-10.312l.059,10.078c-.859-.195-1.631-.322-2.314-.381s-1.475-.088-2.373-.088c-1.953,0-3.662.391-5.127,1.172-1.465.782-2.725,1.875-3.779,3.281s-1.895,3.076-2.52,5.01-1.055,4.053-1.289,6.357l-2.695,1.758c0-3.828.303-7.422.908-10.781.605-3.359,1.553-6.337,2.842-8.936,1.289-2.597,2.939-4.629,4.951-6.094s4.424-2.197,7.236-2.197c.625,0,1.396.088,2.314.264s1.514.362,1.787.557Z"/><path d="m762.396,94.401v8.32h-29.59v-8.32h29.59Zm-19.922-15.41h10.371v63.105c0,2.148.264,3.77.791,4.863s1.201,1.816,2.021,2.168,1.699.527,2.637.527c.703,0,1.484-.088,2.344-.264s1.445-.322,1.758-.439l-.059,8.848c-.703.272-1.641.536-2.812.791-1.172.253-2.656.381-4.453.381-2.227,0-4.297-.527-6.211-1.582s-3.457-2.822-4.629-5.303-1.758-5.83-1.758-10.049v-63.047Z"/></svg>