<?xml version="1.0" encoding="UTF-8" standalone="no"?>
<!DOCTYPE svg PUBLIC "-//W3C//DTD SVG 1.1//EN" "http://www.w3.org/Graphics/SVG/1.1/DTD/svg11.dtd">
<svg width="100%" height="100%" viewBox="0 0 380 120" version="1.1" xmlns="http://www.w3.org/2000/svg" xmlns:xlink="http://www.w3.org/1999/xlink" xml:space="preserve" xmlns:serif="http://www.serif.com/" style="fill-rule:evenodd;clip-rule:evenodd;stroke-linejoin:round;stroke-miterlimit:1.41421;">
    <g transform="matrix(1,0,0,1,29.7598,-103)">
        <path d="M132.7,157.1L92,148.6L83,157.2L83,175C67.9,183.3 52.7,191.6 37.5,199.9L37.5,223L178.2,223L178.2,199.8C163,191.5 147.8,183.2 132.7,174.9L132.7,157.1ZM123.7,173C113.1,173 102.8,173 92.1,173C92.1,170.5 92.1,168.2 92.1,165.6C102.8,165.6 113.2,165.6 123.7,165.6C123.7,168.2 123.7,170.5 123.7,173ZM46.5,214.6C46.5,211.5 46.5,208.4 46.5,204.8C58,198.5 69.8,192.1 81.6,185.7C85.1,183.8 88.3,181.2 93.2,182.2C93.3,182.4 93.4,182.6 93.6,182.9C88.6,189 83.5,195 78.2,201.5C78.2,205.8 78.2,210.3 78.2,214.7C67.6,214.6 57.2,214.6 46.5,214.6ZM87.7,214.6C87.7,211.2 87.7,207.6 87.7,203.7C93.5,196.8 99.7,189.4 105.9,182.1C107.2,182.1 108.5,182.1 109.9,182.1C116.1,189.4 122.3,196.8 128.1,203.7C128.1,207.7 128.1,211.2 128.1,214.6C114.6,214.6 101.4,214.6 87.7,214.6ZM122.1,182.7C122.2,182.5 122.3,182.3 122.4,182.2C127.3,181.1 130.6,183.8 134.1,185.7C145.9,192.1 157.7,198.6 169.2,204.8C169.2,208.4 169.2,211.5 169.2,214.6C158.5,214.6 148.1,214.6 137.5,214.6C137.5,210.2 137.5,205.6 137.5,201.3C132.2,194.9 127.2,188.8 122.1,182.7Z" style="fill:rgb(8,181,229);fill-rule:nonzero;"/>
    </g>
    <g transform="matrix(0.976471,0.215648,-0.215648,0.976471,180.093,-48.6282)">
        <path d="M144.2,139.9L153.4,137.4C193.7,121.9 214.8,93.4 215.7,49.7L1.1,49.7L1.1,49.8L0,49.8C0.9,93.5 22,122 62.3,137.5C62.3,137.5 66.777,139.018 71.4,139.9L144.2,139.9ZM24.3,99.5C39.7,99.5 54.5,99.5 70,99.5C63.8,107.8 58,115.5 52.1,123.3C40.9,117.6 31.8,110 24.3,99.5ZM163.6,123.4C157.7,115.5 148.261,107.234 142.061,98.934C157.661,98.934 176,99.5 191.5,99.5C184,110 174.9,117.6 163.6,123.4ZM174.3,58.3C185.5,58.3 195.8,58.3 206.4,58.3C205.5,69.9 202.8,80.4 197,90.6C189.3,79.7 182,69.3 174.3,58.3ZM186,90.6C172.2,90.6 159.2,90.6 145.4,90.6C152.3,80.8 158.8,71.5 165.7,61.5C172.6,71.4 179.1,80.7 186,90.6ZM136.8,87.2C130,77.5 123.5,68.2 116.6,58.4C130.2,58.4 143.1,58.4 157,58.4C150.1,68.2 143.6,77.5 136.8,87.2ZM80.935,90.752C87.735,80.952 100.839,68.201 107.739,58.301C114.639,68.201 121.2,80.6 128,90.4C114.4,90.4 94.735,90.752 80.935,90.752ZM87.7,99.6C101.5,99.6 114.5,99.6 128.2,99.6C121.4,109.4 114.9,118.6 108,128.5C100.9,118.6 94.5,109.4 87.7,99.6ZM99.3,131.9C98.5,131.9 97.7,132 96.9,132C84.2,132.3 72.5,131.9 60.6,127C66.7,118.9 72.5,111.1 78.8,102.7C85.8,112.6 92.3,122 99.3,131.9ZM116.5,131.8C123.4,121.9 142.292,99.247 142.061,98.934C148.361,107.434 157.6,115.2 163.6,123.4C155.7,126.7 139.4,131.6 131.3,132C126.5,132.2 121.6,132 116.5,131.8ZM107.739,58.301C100.839,68.201 87.735,81.052 80.935,90.752C74.135,81.052 65.7,68.3 58.9,58.5C72.7,58.4 94.239,58.301 107.739,58.301ZM70.3,90.6C56.5,90.6 43.5,90.6 29.7,90.6C36.6,80.7 43.1,71.4 50,61.5C57,71.5 63.5,80.8 70.3,90.6ZM41.4,58.3C33.7,69.3 26.4,79.8 18.8,90.6C13,80.4 10.3,69.9 9.4,58.3C19.9,58.3 30.3,58.3 41.4,58.3ZM71.4,139.9C95.8,139.9 119.9,139.9 144.2,139.9" style="fill:rgb(8,181,229);fill-rule:nonzero;"/>
    </g>
    <g transform="matrix(-0.999991,-0.00427476,0.00427476,-0.999991,151.386,120.427)">
        <path d="M67.598,54.674L139.408,55.447L151.604,50.639C151.604,50.639 133.9,29.5 125.2,19.5L125.2,9.2C125.2,4.1 121.1,0 116,0L100.1,0C99.7,0 99.3,0 98.9,0.1C94.2,0.5 90.5,4.4 90.5,9.2L90.5,19.6C81.8,29.5 64.2,49.7 64.2,49.7L67.598,54.674ZM112.863,49.442C112.863,49.442 112.6,33.1 112.6,25.1C114.4,25.1 116.1,25.1 118.2,25.1C125,32.9 138.131,49.61 138.131,49.61L112.863,49.442ZM115.4,16.2C110.4,16.2 105.5,16.2 100.4,16.2C100.4,13.3 100.4,11.1 100.4,8.6C105.5,8.6 110.3,8.6 115.4,8.6C115.4,11.1 115.4,13.4 115.4,16.2ZM103.1,25.2C103.1,33.1 102.26,49.371 102.26,49.371L76.5,49.2C76.5,49.2 90.7,32.9 97.4,25.2C99.3,25.2 101.1,25.2 103.1,25.2Z" style="fill:rgb(8,181,229);fill-rule:nonzero;"/>
    </g>
</svg>
